<?xml version="1.0" encoding="utf-8"?>
<!-- Generator: Adobe Illustrator 24.2.1, SVG Export Plug-In . SVG Version: 6.00 Build 0)  -->
<svg version="1.1" id="Capa_1" xmlns="http://www.w3.org/2000/svg" xmlns:xlink="http://www.w3.org/1999/xlink" x="0px" y="0px"
	 viewBox="0 0 193.5 66.8" style="enable-background:new 0 0 193.5 66.8;" xml:space="preserve">
<g>
	<path d="M13,65.4l-5.1-6.8l3.6-20.2l-1.2-1.5H6.4l1.2-7.1h3.9l1.7-1.5l3.6-20.2l7.5-6.8h12.1l-1.3,7.3h-6.7l-1.6,1.4l-3.4,19.3
		l-4.8,4l3.3,4l-3.4,19.2l1.1,1.4h6.7l-1.3,7.3H13z"/>
	<path d="M33.4,53.9l1.6-9.2h23.7l2.6-2.1l0.9-5l-1.8-2.1H41.7l-5.6-6.9l2.3-13l8-6.8h29.8l-1.6,9.2H51.5L49,20l-0.7,4l1.8,2.1h18.6
		l5.6,6.8l-2.5,14.1l-8,6.8H33.4z"/>
	<path d="M77.2,53.9l1.7-9.6h10.7l-1.7,9.6H77.2z M81.1,31.5l1.7-9.6h10.7l-1.7,9.6H81.1z"/>
	<path d="M102,53.9l-5.6-6.8l5.5-31.6l8-6.8h26.7l5.6,6.8l-5.5,31.6l-8,6.8H102z M110.5,45.2h12.9l2.5-2.1l4.2-23.5l-1.9-2.1h-12.8
		l-2.6,2.1L108.6,43L110.5,45.2z"/>
	<path d="M138.4,60.7l5.7-16.4h11.5l-9.9,16.4H138.4z M146.3,31.5l1.7-9.6h10.7l-1.7,9.6H146.3z"/>
	<path d="M157,65.4l1.3-7.3h6.7l1.6-1.4l3.4-19.3l4.8-4l-3.3-4l3.4-19.2l-1.1-1.4H167l1.3-7.3h12.1l5.1,6.8L182,28.4l1.2,1.5h3.9
		l-1.2,7.1H182l-1.7,1.5l-3.6,20.2l-7.5,6.8H157z"/>
</g>
</svg>
