<svg xmlns="http://www.w3.org/2000/svg" width="84.236" height="49.739" viewBox="0 0 84.236 49.739">
  <path id="Trazado_18" data-name="Trazado 18" d="M.932,39.077V32.866A5.381,5.381,0,0,0,5.176,31.2Q6.6,29.554,6.6,23.809a46.933,46.933,0,0,1,.323-6.483,6.811,6.811,0,0,1,1.566-3.532A7.011,7.011,0,0,1,11.7,11.736a18.988,18.988,0,0,1,5.564-.634h1.372v6.185q-3.752,0-4.49.776a4.677,4.677,0,0,0-.789,3.028q-.155,6.211-.4,8.074a10.54,10.54,0,0,1-1.139,3.558,9.217,9.217,0,0,1-3.325,3.248A8.938,8.938,0,0,1,11.84,39.31a13.427,13.427,0,0,1,1.229,5.59l.388,7.531a2.467,2.467,0,0,0,1.113,1.643q.88.556,4.037.556v6.211H17.261a17.091,17.091,0,0,1-6.392-.945A6.06,6.06,0,0,1,7.608,56.8Q6.6,54.656,6.6,49.869a37.376,37.376,0,0,0-.362-6.754,6.607,6.607,0,0,0-1.4-2.7Q3.8,39.181.932,39.077ZM30.589,28.933h9.291V19.616h6.314v9.316h9.342v6.314H46.194v9.265H39.879V35.247H30.589ZM85.167,39.077a5.359,5.359,0,0,0-4.244,1.682Q79.5,42.416,79.5,48.109a49.139,49.139,0,0,1-.311,6.509,6.729,6.729,0,0,1-1.553,3.532,7.011,7.011,0,0,1-3.209,2.057,18.988,18.988,0,0,1-5.564.634H67.492V54.63q3.6,0,4.412-.75t.867-3.054a76.969,76.969,0,0,1,.479-8.5,10.18,10.18,0,0,1,1.294-3.507,8.287,8.287,0,0,1,3.067-2.847,10.147,10.147,0,0,1-3.105-2.847,8.68,8.68,0,0,1-1.19-3.041,48.186,48.186,0,0,1-.466-6.107,35.254,35.254,0,0,0-.362-5.111,2.067,2.067,0,0,0-1-1.113,10.192,10.192,0,0,0-4.024-.466V11.1h1.372a17.091,17.091,0,0,1,6.392.945,6.06,6.06,0,0,1,3.261,3.093Q79.5,17.287,79.5,22.075a34.562,34.562,0,0,0,.4,6.91,6.712,6.712,0,0,0,1.423,2.6q1.022,1.177,3.843,1.281Z" transform="translate(-0.932 -11.102)" fill="#00facb"/>
</svg>
